<?xml version="1.0" encoding="UTF-8"?>
<svg id="Capa_1" data-name="Capa 1" xmlns="http://www.w3.org/2000/svg" version="1.1" viewBox="0 0 230 33">
  <defs>
    <style>
      .cls-1 {
        stroke-width: 0px;
      }

      .cls-1, .cls-2, .cls-3 {
        fill: #d89772;
      }

      .cls-2 {
        font-family: STIXGeneral-Regular, STIXGeneral;
        font-size: 8.9px;
        letter-spacing: .3em;
      }

      .cls-4 {
        fill: none;
        stroke: #d89772;
        stroke-miterlimit: 10;
        stroke-width: .8px;
      }

      .cls-3 {
        font-family: Roboto-Regular, Roboto;
        font-size: 6.4px;
        letter-spacing: .3em;
      }
    </style>
  </defs>
  <text class="cls-2" transform="translate(87.5 11.7)"><tspan x="0" y="0">LÓPEZ VENER &amp; ASOC.</tspan></text>
  <g>
    <path class="cls-1" d="M7.9,6v-.6c1.4,0,2.3,0,2.8,0s.8,0,1.1,0c1.9,0,3.1,0,3.7,0v.7c-.8,0-1.4.2-1.8.3-.4.1-.7.4-.8.8-.1.2-.2.9-.2,1.9,0,1,0,2.3-.1,3.8,0,1.7,0,3.3-.1,4.7,0,1.4,0,2.8,0,4.2s0,2.2.1,2.8.2,1,.3,1.1c.2.1.5.3,1,.3s1.4.1,2.8.1,2.9-.1,4-.4c1.1-.3,1.9-.5,2.4-.8.7-.4,1.2-1.2,1.5-2.2h.6c0,.5-.2,1.2-.5,2.1-.2.9-.5,1.8-.8,2.5-1-.1-1.7-.2-2.3-.2-.3,0-.7,0-1,0-.3,0-.6,0-1,0H7.7v-.5c.6-.1,1.1-.3,1.4-.4.3-.2.5-.4.7-.8.2-.4.2-1,.3-1.7s0-1.9,0-3.4v-7.4c0-1.7,0-3,0-3.8,0-.9-.1-1.5-.2-1.9s-.3-.7-.6-.8c-.3-.1-.8-.2-1.4-.2Z"/>
    <g>
      <path class="cls-1" d="M44.9,23.3v-.2c0-.3-.3-.6-.5-1l-.5-1-2.4-5.1c-.3-.7-.8-1.8-1.5-3.3-.7-1.5-1.3-2.9-1.7-4-.5-1.2-.7-1.9-.7-2.2s.1-.4.3-.4c.2,0,.8-.1,1.8-.2v-.5s-1.7,0-1.7,0c-.4,0-.7,0-1,0-.2,0-.5,0-.7,0h-2.8c0-.1-1.4-.1-1.4-.1v.6c.4,0,.8,0,1.1.2.3,0,.6.3.8.6.4.5,1.7,2.9,3.8,7.2l2.8,6c.6,1.2,1.1,2.3,1.4,3.2l1.1,2.5c.3.7.6,1.4.9,2.1h.2s.4-4.4.4-4.4Z"/>
      <polygon class="cls-1" points="49.8 5.4 52.1 10.4 54.2 5.4 49.8 5.4"/>
    </g>
  </g>
  <text class="cls-3" transform="translate(87.5 27.1)"><tspan x="0" y="0">Despachante de Aduana </tspan></text>
  <line class="cls-4" x1="68" y1="2.6" x2="68" y2="30.5"/>
</svg>